<svg xmlns="http://www.w3.org/2000/svg" width="148" height="44" viewBox="0 0 148 44" role="img" aria-labelledby="title">
  <title>GitHub</title>
  <rect width="148" height="44" rx="10" fill="#0f172a"/>
  <rect x="1" y="1" width="146" height="42" rx="9" fill="none" stroke="#94a3b8" stroke-width="1.5"/>
  <path d="M24 30c-4.5 0-8-3.2-8-7.2 0-3.2 2-5.9 4.9-6.9-.1-.5-.2-1.2 0-1.7 0 0 .4-.1 1.3.9.4-.2.8-.3 1.3-.4.4-.1.9-.2 1.4-.2s1 .1 1.4.2c.5.1.9.2 1.3.4 1-.9 1.3-.9 1.3-.9.2.5.1 1.2 0 1.7 2.9 1 4.9 3.7 4.9 6.9 0 4-3.5 7.2-8 7.2-.6 0-1.1 0-1.7-.1v2.4h-3.4V30z" fill="#f8fafc"/>
  <text x="46" y="27" font-family="ui-sans-serif,system-ui,sans-serif" font-size="13" font-weight="600" fill="#f8fafc">GitHub</text>
</svg>
