<svg xmlns="http://www.w3.org/2000/svg" width="1280" height="78" viewBox="0 0 1280 78" role="img" aria-labelledby="title desc">
  <title>Core technology stack</title>
  <desc>Six core technologies: Java, Spring Boot, Python, DuckDB, TypeScript, and C++.</desc>
  <rect width="1280" height="78" rx="8" fill="#0d1117" stroke="#21262d"/>

  <g font-family="ui-sans-serif, system-ui, sans-serif" font-size="11" fill="#c9d1d9" text-anchor="middle">
    <g transform="translate(213,18)">
      <path d="M-10 8c0-6 5-10 10-10s10 4 10 10v4c0 3-2 5-5 6l-3 8h-4l-3-8c-3-1-5-3-5-6V8z" fill="#ed8b00"/>
      <path d="M-2 14h4v6h-4z" fill="#fff" opacity="0.9"/>
      <text y="38">Java</text>
    </g>
    <g transform="translate(400,18)">
      <circle cx="0" cy="8" r="12" fill="#6db33f"/>
      <path d="M0-2v8M-4 6c2 2 6 2 8 0" stroke="#fff" stroke-width="1.5" fill="none" stroke-linecap="round"/>
      <text y="38">Spring Boot</text>
    </g>
    <g transform="translate(587,18)">
      <path d="M-10-2c-4 0-7 3-7 7v5h7v2h-9c-4 0-7 3-7 7s3 7 7 7h5v-7h2v7c0 4 3 7 7 7h5v-5h2v-9c0-4-3-7-7-7h-5v7h-2v-5c0-4-3-7-7-7z" fill="#3776ab" transform="scale(0.85)"/>
      <text y="38">Python</text>
    </g>
    <g transform="translate(773,18)">
      <ellipse cx="0" cy="10" rx="12" ry="9" fill="#fff100" stroke="#8b949e" stroke-width="1.2"/>
      <circle cx="5" cy="7" r="1.5" fill="#383838"/>
      <path d="M8 9l5 2v2l-5 1z" fill="#ff9900"/>
      <text y="38">DuckDB</text>
    </g>
    <g transform="translate(960,18)">
      <rect x="-12" y="-2" width="24" height="24" rx="3" fill="#3178c6"/>
      <text x="0" y="14" text-anchor="middle" font-size="11" font-weight="700" fill="#fff">TS</text>
      <text y="38">TypeScript</text>
    </g>
    <g transform="translate(1147,18)">
      <rect x="-14" y="-2" width="28" height="24" rx="3" fill="#00599c"/>
      <text x="0" y="14" text-anchor="middle" font-size="10" font-weight="700" fill="#fff">C++</text>
      <text y="38">C++</text>
    </g>
  </g>
</svg>
