<svg xmlns="http://www.w3.org/2000/svg" width="1280" height="220" viewBox="0 0 1280 220" role="img" aria-labelledby="title desc">
  <title>Six systems map</title>
  <desc>Decorative map of six portfolio systems.</desc>
  <rect width="1280" height="220" fill="#0f172a"/>
  <rect x="0.5" y="0.5" width="1279" height="219" rx="12" fill="none" stroke="#1e293b"/>

  <text x="640" y="32" text-anchor="middle" font-family="ui-sans-serif, system-ui, sans-serif" font-size="11" fill="#64748b" letter-spacing="0.16em">THE PIN BOARD  SIX SYSTEMS, ZERO FLUFF</text>

  <path d="M 180 120 H 1100" stroke="#334155" stroke-width="2" stroke-dasharray="6 8" fill="none"/>

  <g font-family="ui-sans-serif, system-ui, sans-serif">
    <g transform="translate(90,58)">
      <rect width="170" height="110" rx="14" fill="#1e293b" stroke="#2dd4bf" stroke-width="2"/>
      <text x="85" y="36" text-anchor="middle" font-size="22">=Ş</text>
      <text x="85" y="58" text-anchor="middle" font-size="12" font-weight="700" fill="#e2e8f0">RupeeRoute</text>
      <text x="85" y="78" text-anchor="middle" font-size="10" fill="#94a3b8">sandbox fintech</text>
      <text x="85" y="94" text-anchor="middle" font-size="9" fill="#64748b">no real money, promise</text>
    </g>
    <g transform="translate(285,58)">
      <rect width="170" height="110" rx="14" fill="#1e293b" stroke="#94a3b8" stroke-width="2"/>
      <text x="85" y="36" text-anchor="middle" font-size="22">=</text>
      <text x="85" y="58" text-anchor="middle" font-size="12" font-weight="700" fill="#e2e8f0">Secure API</text>
      <text x="85" y="78" text-anchor="middle" font-size="10" fill="#94a3b8">Spring Boot + RBAC</text>
      <text x="85" y="94" text-anchor="middle" font-size="9" fill="#64748b">deny paths tested</text>
    </g>
    <g transform="translate(480,58)">
      <rect width="170" height="110" rx="14" fill="#1e293b" stroke="#60a5fa" stroke-width="2"/>
      <text x="85" y="36" text-anchor="middle" font-size="22">>ŕ</text>
      <text x="85" y="58" text-anchor="middle" font-size="12" font-weight="700" fill="#e2e8f0">Data Pipeline</text>
      <text x="85" y="78" text-anchor="middle" font-size="10" fill="#94a3b8">quarantine the chaos</text>
      <text x="85" y="94" text-anchor="middle" font-size="9" fill="#64748b">lineage you can audit</text>
    </g>
    <g transform="translate(675,58)">
      <rect width="170" height="110" rx="14" fill="#1e293b" stroke="#2dd4bf" stroke-width="2"/>
      <text x="85" y="36" text-anchor="middle" font-size="22">=ß</text>
      <text x="85" y="58" text-anchor="middle" font-size="12" font-weight="700" fill="#e2e8f0">Health Monitor</text>
      <text x="85" y="78" text-anchor="middle" font-size="10" fill="#94a3b8">SLOs &amp; incidents</text>
      <text x="85" y="94" text-anchor="middle" font-size="9" fill="#64748b">metrics that talk</text>
    </g>
    <g transform="translate(870,58)">
      <rect width="170" height="110" rx="14" fill="#1e293b" stroke="#94a3b8" stroke-width="2"/>
      <text x="85" y="36" text-anchor="middle" font-size="22">=Ś</text>
      <text x="85" y="58" text-anchor="middle" font-size="12" font-weight="700" fill="#e2e8f0">Auto Sec Bench</text>
      <text x="85" y="78" text-anchor="middle" font-size="10" fill="#94a3b8">ECU threat stories</text>
      <text x="85" y="94" text-anchor="middle" font-size="9" fill="#64748b">risk scores, not hype</text>
    </g>
    <g transform="translate(1065,58)">
      <rect width="125" height="110" rx="14" fill="#1e293b" stroke="#60a5fa" stroke-width="2"/>
      <text x="62" y="36" text-anchor="middle" font-size="22">=</text>
      <text x="62" y="58" text-anchor="middle" font-size="11" font-weight="700" fill="#e2e8f0">BMS Harness</text>
      <text x="62" y="78" text-anchor="middle" font-size="10" fill="#94a3b8">C++ quarantine</text>
      <text x="62" y="94" text-anchor="middle" font-size="9" fill="#64748b">bad volts begone</text>
    </g>
  </g>

  <circle cx="175" cy="120" r="5" fill="#2dd4bf"/>
  <circle cx="370" cy="120" r="5" fill="#94a3b8"/>
  <circle cx="565" cy="120" r="5" fill="#60a5fa"/>
  <circle cx="760" cy="120" r="5" fill="#2dd4bf"/>
  <circle cx="955" cy="120" r="5" fill="#94a3b8"/>
  <circle cx="1127" cy="120" r="5" fill="#60a5fa"/>
</svg>
