<svg xmlns="http://www.w3.org/2000/svg" width="960" height="200" viewBox="0 0 960 200" role="img" aria-labelledby="title desc">
  <title>Selected systems</title>
  <desc>Six portfolio systems in a balanced grid.</desc>
  <rect width="960" height="200" rx="12" fill="#0f172a" stroke="#1e293b"/>

  <text x="480" y="28" text-anchor="middle" font-family="ui-sans-serif, system-ui, sans-serif" font-size="11" font-weight="600" fill="#64748b" letter-spacing="0.14em">SELECTED SYSTEMS</text>

  <g font-family="ui-sans-serif, system-ui, sans-serif">
    <g transform="translate(20,48)">
      <rect width="145" height="132" rx="10" fill="#1e293b" stroke="#2dd4bf" stroke-width="1.5"/>
      <rect x="12" y="14" width="28" height="28" rx="6" fill="#134e4a"/>
      <text x="26" y="33" text-anchor="middle" font-size="14" fill="#5eead4">?</text>
      <text x="72" y="30" font-size="11" font-weight="700" fill="#e2e8f0">RupeeRoute</text>
      <text x="12" y="58" font-size="9.5" fill="#94a3b8">Sandbox fintech monorepo</text>
      <text x="12" y="74" font-size="9.5" fill="#94a3b8">Transfer state machine</text>
      <text x="12" y="108" font-size="8.5" fill="#64748b">No live money</text>
    </g>
    <g transform="translate(175,48)">
      <rect width="145" height="132" rx="10" fill="#1e293b" stroke="#64748b" stroke-width="1.5"/>
      <rect x="12" y="14" width="28" height="28" rx="6" fill="#1e3a8a"/>
      <text x="26" y="33" text-anchor="middle" font-size="13" fill="#93c5fd">??</text>
      <text x="72" y="30" font-size="11" font-weight="700" fill="#e2e8f0">Secure API</text>
      <text x="12" y="58" font-size="9.5" fill="#94a3b8">Spring Boot + RBAC</text>
      <text x="12" y="74" font-size="9.5" fill="#94a3b8">Audit grant registry</text>
      <text x="12" y="108" font-size="8.5" fill="#64748b">MockMvc tests</text>
    </g>
    <g transform="translate(330,48)">
      <rect width="145" height="132" rx="10" fill="#1e293b" stroke="#60a5fa" stroke-width="1.5"/>
      <rect x="12" y="14" width="28" height="28" rx="6" fill="#1e3a8a"/>
      <text x="26" y="33" text-anchor="middle" font-size="13" fill="#93c5fd">?</text>
      <text x="72" y="30" font-size="11" font-weight="700" fill="#e2e8f0">Data Pipe</text>
      <text x="12" y="58" font-size="9.5" fill="#94a3b8">DuckDB validation</text>
      <text x="12" y="74" font-size="9.5" fill="#94a3b8">Quarantine + lineage</text>
      <text x="12" y="108" font-size="8.5" fill="#64748b">Quality gate</text>
    </g>
    <g transform="translate(485,48)">
      <rect width="145" height="132" rx="10" fill="#1e293b" stroke="#2dd4bf" stroke-width="1.5"/>
      <rect x="12" y="14" width="28" height="28" rx="6" fill="#134e4a"/>
      <text x="26" y="33" text-anchor="middle" font-size="13" fill="#5eead4">?</text>
      <text x="72" y="30" font-size="11" font-weight="700" fill="#e2e8f0">Monitor</text>
      <text x="12" y="58" font-size="9.5" fill="#94a3b8">FastAPI observability</text>
      <text x="12" y="74" font-size="9.5" fill="#94a3b8">SLO / error budget</text>
      <text x="12" y="108" font-size="8.5" fill="#64748b">Prometheus metrics</text>
    </g>
    <g transform="translate(640,48)">
      <rect width="145" height="132" rx="10" fill="#1e293b" stroke="#64748b" stroke-width="1.5"/>
      <rect x="12" y="14" width="28" height="28" rx="6" fill="#334155"/>
      <text x="26" y="33" text-anchor="middle" font-size="13" fill="#cbd5e1">?</text>
      <text x="72" y="30" font-size="11" font-weight="700" fill="#e2e8f0">Auto Sec</text>
      <text x="12" y="58" font-size="9.5" fill="#94a3b8">ECU threat scenarios</text>
      <text x="12" y="74" font-size="9.5" fill="#94a3b8">5×5 risk scoring</text>
      <text x="12" y="108" font-size="8.5" fill="#64748b">JSON/HTML reports</text>
    </g>
    <g transform="translate(795,48)">
      <rect width="145" height="132" rx="10" fill="#1e293b" stroke="#60a5fa" stroke-width="1.5"/>
      <rect x="12" y="14" width="28" height="28" rx="6" fill="#1e3a8a"/>
      <text x="26" y="33" text-anchor="middle" font-size="13" fill="#93c5fd">?</text>
      <text x="72" y="30" font-size="11" font-weight="700" fill="#e2e8f0">BMS Test</text>
      <text x="12" y="58" font-size="9.5" fill="#94a3b8">C++17 validation</text>
      <text x="12" y="74" font-size="9.5" fill="#94a3b8">Deterministic quarantine</text>
      <text x="12" y="108" font-size="8.5" fill="#64748b">CMake / CTest</text>
    </g>
  </g>
</svg>
